PathFileType	4	(X/Y/Z)	c:/Users/goper/Files/vsCode/490R/osim_files/C10/C10_Slow_03.trc
DataRate	CameraRate	NumFrames	NumMarkers	Units                	OrigDataRate	OrigDataStartFrame	OrigNumFrames
250.00	250.00	10	36	mm	250.0	1581	3160
                Frame#	Time	LPSIS			LASIS			LTH1			LTH2			LTH3			LTH4			LLFE			LMFE			LSH1			LSH2			LSH3			LSH4			LLMAL			LMMAL			LCAL			LMTP5			LTOE			LMTP1			RPSIS			RASIS			RTH1			RTH2			RTH3			RTH4			RLFE			RMFE			RSH1			RSH2			RSH3			RSH4			RLMAL			RMMAL			RCAL			RMTP1			RTOE			RMTP5		
		X1	Y1	Z1	X2	Y2	Z2	X3	Y3	Z3	X4	Y4	Z4	X5	Y5	Z5	X6	Y6	Z6	X7	Y7	Z7	X8	Y8	Z8	X9	Y9	Z9	X10	Y10	Z10	X11	Y11	Z11	X12	Y12	Z12	X13	Y13	Z13	X14	Y14	Z14	X15	Y15	Z15	X16	Y16	Z16	X17	Y17	Z17	X18	Y18	Z18	X19	Y19	Z19	X20	Y20	Z20	X21	Y21	Z21	X22	Y22	Z22	X23	Y23	Z23	X24	Y24	Z24	X25	Y25	Z25	X26	Y26	Z26	X27	Y27	Z27	X28	Y28	Z28	X29	Y29	Z29	X30	Y30	Z30	X31	Y31	Z31	X32	Y32	Z32	X33	Y33	Z33	X34	Y34	Z34	X35	Y35	Z35	X36	Y36	Z36

1581	6.32000	-1049.79016	990.42084	235.15668	-1212.14514	974.38348	355.53690	-1226.60095	744.99054	397.10718	-1249.94788	703.64673	393.80725	-1276.90002	768.42010	374.23004	-1291.74219	724.18945	371.53384	-1370.84314	497.79596	315.42987	-1364.48328	490.09528	198.54321	-1365.99731	405.19714	345.08655	-1376.37317	358.57870	330.11252	-1409.93530	422.90033	313.26764	-1422.62744	378.71951	315.78632	-1509.56067	115.59689	284.83188	0.00000	0.00000	0.00000	-1476.22498	35.46804	243.50745	-1631.91235	118.42855	294.73343	-1661.89844	162.54495	229.61276	-1644.11145	118.85055	188.01906	-1053.30103	1002.00433	153.03613	-1206.59167	977.07941	19.74037	-1079.32727	736.15515	-13.19916	-1080.11877	692.47241	-11.32484	-1140.29956	729.74628	-19.71395	-1133.03369	685.71661	-15.92055	-1053.44946	468.77570	56.27494	-1066.23865	460.82556	167.73401	-958.95709	399.74307	49.43306	-950.93219	356.62079	50.56815	-1019.13910	380.53470	56.59936	-1001.23071	341.32693	55.06822	-892.76221	99.45314	111.67639	0.00000	0.00000	0.00000	-824.50391	56.20474	148.62537	-1007.54333	30.78318	198.39746	0.00000	0.00000	0.00000	-1002.56390	31.44660	91.46201
1582	6.32400	-1054.47119	989.61188	235.62708	-1217.05017	973.76459	355.84726	-1232.73682	744.78503	397.29596	-1256.30835	703.52069	393.91382	-1282.84460	768.31195	374.11990	-1297.85718	724.14197	371.37537	-1377.02759	497.61868	315.22424	-1370.57483	489.89957	198.73479	-1371.77502	404.52432	344.87686	-1381.09229	357.37384	330.24655	-1415.39709	422.16425	313.20526	-1427.71240	377.85934	315.70889	-1512.47876	114.14043	284.91235	0.00000	0.00000	0.00000	-1478.74573	34.27412	243.80206	-1634.79736	116.27857	294.80640	-1665.08521	160.15428	229.63205	-1647.24707	116.51421	188.12413	-1058.03198	1001.34528	153.59373	-1211.23328	976.43042	20.04593	-1083.31189	735.93652	-12.82093	-1083.91077	691.21338	-10.17966	-1144.28992	729.22339	-19.44828	-1136.82764	685.26971	-15.66427	-1056.35718	468.63617	56.39174	-1069.36829	460.48260	167.86385	-961.51007	400.18088	49.58953	-953.20972	357.09244	50.73409	-1021.53406	380.52188	56.69693	-1003.35443	341.47580	55.15903	-893.28772	100.26402	111.61058	0.00000	0.00000	0.00000	-824.92114	57.42112	148.37408	-1007.51984	30.72288	198.39291	0.00000	0.00000	0.00000	-1002.55933	31.41729	91.39452
1583	6.32800	-1059.27319	988.78564	236.14935	-1221.99402	973.17303	356.18268	-1239.03247	744.59772	397.49585	-1262.69702	703.40186	394.01221	-1288.88391	768.27130	373.97729	-1303.94495	724.12628	371.23889	-1382.98694	497.42590	315.05060	-1376.50928	489.61292	198.97189	-1377.49817	403.76868	344.60837	-1385.92480	356.78036	330.19656	-1420.76184	421.34781	313.12930	-1432.74646	376.93274	315.63690	-1515.16553	112.53857	285.01044	0.00000	0.00000	0.00000	-1480.84607	32.71136	243.81010	-1637.49426	113.95232	294.92963	-1668.04431	157.53604	229.72122	-1649.83838	113.87927	188.25977	-1062.87610	1000.59351	154.23915	-1215.94104	975.81134	20.37776	-1087.35583	735.74731	-12.41262	-1087.20020	692.89667	-11.57384	-1148.27856	728.81201	-19.20691	-1140.71997	684.83954	-15.44499	-1059.35913	468.49258	56.50864	-1072.63013	460.18661	167.93074	-964.05975	400.68295	49.75578	-955.48035	357.63452	50.84337	-1023.99567	380.59390	56.77411	-1005.55847	341.65601	55.24174	-893.87122	101.12278	111.51698	0.00000	0.00000	0.00000	-825.09900	58.49804	148.47112	-1007.51410	30.67453	198.37994	0.00000	0.00000	0.00000	-1002.63739	31.38658	91.35975
1584	6.33200	-1064.19470	987.96973	236.56038	-1226.96899	972.57617	356.52625	-1245.22498	744.41486	397.66290	-1269.04614	703.29352	394.06433	-1294.89966	768.26990	373.85223	-1310.15369	724.08917	371.08081	-1388.82642	497.14456	314.88696	-1382.33997	489.20190	199.23003	-1377.43713	402.06091	341.31662	-1390.97595	356.90436	330.16357	-1426.01514	420.42038	313.10092	-1437.63318	375.91803	315.57825	-1517.61414	110.87986	285.08704	0.00000	0.00000	0.00000	-1482.78589	31.17795	243.92645	-1639.91125	111.41982	295.05054	-1670.76880	154.71500	229.87419	-1652.31470	111.12016	188.53505	-1067.66589	999.91376	154.80382	-1220.66614	975.16577	20.68200	-1091.48718	735.48639	-12.02226	-1091.12915	692.69977	-11.26860	-1152.34180	728.38702	-18.96733	-1144.62134	684.44171	-15.21091	-1062.49890	468.31857	56.63809	-1075.89087	459.86627	168.03850	-966.66083	401.18701	49.91763	-957.78455	358.18152	50.95658	-1026.51428	380.62741	56.85579	-1007.79639	341.83810	55.26765	-894.44116	102.01093	111.45602	0.00000	0.00000	0.00000	-825.53687	59.82781	148.19991	-1007.52716	30.63889	198.35814	0.00000	0.00000	0.00000	-1002.65997	31.36521	91.31111
1585	6.33600	-1069.13684	987.15955	237.08238	-1232.03662	972.01575	356.87207	-1251.38171	744.19934	397.83420	-1275.38818	703.20844	394.15466	-1300.90967	768.25183	373.75763	-1316.30811	724.06665	370.93826	-1394.67651	496.73956	314.67563	-1388.18286	488.78812	199.45651	-1374.84424	400.07242	336.82605	-1395.66101	356.22845	330.13803	-1431.10352	419.40833	312.96597	-1442.37561	374.80399	315.54474	-1519.79492	109.05516	285.20624	0.00000	0.00000	0.00000	-1484.41125	29.60263	244.09657	-1642.07751	108.77480	295.19489	-1673.31750	151.77940	230.05212	-1654.51392	108.20451	188.84836	-1072.60474	999.19958	155.42526	-1225.39832	974.56049	21.00810	-1095.59253	735.30048	-11.62586	-1095.15649	692.52490	-10.94636	-1156.44556	727.94885	-18.72371	-1148.54529	684.07574	-15.00019	-1065.61096	468.21942	56.70320	-1079.26184	459.53848	168.08510	-969.38123	401.65662	50.07765	-960.17944	358.74057	51.08278	-1029.03418	380.70642	56.91883	-1010.07349	342.04346	55.32233	-895.07251	102.94006	111.34045	0.00000	0.00000	0.00000	-825.79926	60.98609	148.29654	-1007.56024	30.61674	198.32703	0.00000	0.00000	0.00000	-1002.74231	31.32885	91.26559
1586	6.34000	-1074.14575	986.38379	237.56802	-1237.20398	971.48022	357.24838	-1257.59863	743.96710	397.99490	-1281.67981	703.09357	394.24719	-1307.03491	768.14923	373.73166	-1322.47253	724.01642	370.84479	-1400.32983	496.22977	314.37988	-1393.96240	488.31067	199.65558	-1375.81165	398.96091	334.44617	-1400.07104	355.44699	330.11823	-1436.19861	418.31552	312.85477	-1446.66797	373.04083	315.78943	-1521.85657	107.12508	285.29736	0.00000	0.00000	0.00000	-1485.79736	27.89785	244.21190	-1643.99573	106.00489	295.41727	-1675.66748	148.65379	230.25621	-1656.53613	105.06597	189.20772	-1077.65991	998.50800	156.07924	-1230.13416	973.99072	21.33280	-1099.79126	735.08997	-11.20779	-1099.20276	692.33386	-10.64729	-1160.57837	727.53107	-18.45761	-1152.53857	683.67590	-14.78356	-1068.78955	468.07697	56.80510	-1082.73340	459.24561	168.19153	-972.11975	402.18112	50.25902	-962.59332	359.35635	51.20530	-1031.65466	380.79855	56.98742	-1012.38586	342.25934	55.34560	-895.65790	103.92043	111.23212	0.00000	0.00000	0.00000	-826.31921	62.38400	148.03131	-1007.61432	30.60883	198.28615	0.00000	0.00000	0.00000	-1002.78088	31.28702	91.21111
1587	6.34400	-1079.37708	985.56635	238.07098	-1242.21814	970.85339	357.55942	-1263.75305	743.72235	398.18173	-1287.61316	703.00793	394.37543	-1313.00500	767.99988	373.71967	-1328.54871	723.92102	370.79559	-1405.83728	495.63382	314.25494	-1399.57043	487.74304	199.88422	-1383.94324	399.30511	336.11255	-1404.14001	354.09515	330.52655	-1441.03625	417.09894	312.78946	-1451.45728	372.28754	315.47348	-1523.55542	105.14086	285.37637	0.00000	0.00000	0.00000	-1486.94751	26.50623	244.22009	-1645.70984	103.05799	295.59094	-1677.74060	145.42743	230.51987	-1658.34558	101.85284	189.55249	-1082.67029	997.83197	156.71938	-1234.98962	973.43909	21.64211	-1104.06018	734.89099	-10.81689	-1103.26868	692.11780	-10.28184	-1164.77454	727.08398	-18.26236	-1156.56628	683.27509	-14.58209	-1072.06799	467.94858	56.88170	-1086.19946	458.90582	168.29405	-974.95630	402.76013	50.43801	-965.09882	359.97476	51.34329	-1034.34961	380.88626	57.05191	-1014.76843	342.51373	55.37285	-896.32849	104.93595	111.11443	-920.48383	94.61404	198.58220	-826.59778	63.64957	148.12337	-1007.69067	30.61594	198.23512	0.00000	0.00000	0.00000	-1002.83423	31.26342	91.16429
1588	6.34800	-1084.46851	984.81964	238.57701	-1247.29150	969.66321	357.45850	-1269.80090	743.42981	398.37796	-1294.10083	702.59747	394.45047	-1318.95044	767.74603	373.75076	-1334.58557	723.74579	370.78137	-1411.12659	494.93546	314.32071	-1405.05920	487.10605	200.11719	-1392.89160	399.36835	338.26523	-1408.27283	353.09973	330.52667	-1445.69250	415.53296	312.37500	-1455.76941	370.81741	315.43588	-1525.07812	103.12728	285.47733	0.00000	0.00000	0.00000	-1487.21143	26.86468	244.27769	-1647.14661	99.91655	295.80737	-1679.61304	142.00705	230.77800	-1659.84875	98.38025	189.98575	-1087.81360	997.13678	157.42760	-1239.89172	972.85162	21.98610	-1108.38977	734.66681	-10.41931	-1107.41162	691.91107	-9.93614	-1169.01184	726.69202	-18.03218	-1160.62183	682.85693	-14.34489	-1075.14563	467.90213	56.28055	-1089.72559	458.51062	168.38298	-977.85162	403.27563	50.62192	-967.70166	360.57944	51.48278	-1037.13806	380.98685	57.08822	-1017.19922	342.75443	55.40014	-897.05182	105.96328	111.00986	-921.13074	95.48383	198.45218	-827.15137	65.18412	147.87224	-1007.79028	30.63883	198.17349	0.00000	0.00000	0.00000	-1002.91595	31.20847	91.12243
1589	6.35200	-1089.73987	984.05859	239.05725	-1252.56201	969.00562	357.93536	-1275.89050	743.10266	398.54953	-1300.09265	702.25043	394.58041	-1324.90613	767.49268	373.81268	-1340.61597	723.45850	370.83572	-1416.27661	494.09024	314.24432	-1410.40845	486.38278	200.31592	-1396.85815	397.74789	337.56439	-1412.21582	351.93610	330.54300	-1450.28503	414.03943	312.30930	-1459.90881	369.23950	315.45456	-1526.44861	101.22032	285.48535	0.00000	0.00000	0.00000	-1487.44116	26.91213	244.17908	-1648.53333	96.54984	296.06375	-1681.59363	138.35835	231.12312	-1661.28442	94.93698	190.44017	-1092.97095	996.45081	158.01685	-1244.72046	972.27942	22.28588	-1112.76001	734.45453	-9.99825	-1111.60632	691.71661	-9.61122	-1173.29443	726.21893	-17.79712	-1164.77917	682.45367	-14.15385	-1078.56262	467.75278	56.36134	-1093.27808	458.05557	168.50671	-980.78333	403.79974	50.81185	-970.34290	361.20389	51.63717	-1039.90845	381.02960	57.12876	-1019.70880	342.98691	55.42672	-897.80920	107.03459	110.87457	0.00000	0.00000	0.00000	-827.48590	66.53876	147.99268	-1007.91431	30.67827	198.10078	0.00000	0.00000	0.00000	-1002.98737	31.15693	91.08099
1590	6.35600	-1095.13293	983.27441	239.60886	-1257.85535	968.34155	358.46609	-1281.87878	742.70020	398.75107	-1306.13965	701.83130	394.68726	-1330.85742	767.13281	373.96259	-1346.58411	723.14056	370.93539	-1421.34998	493.10666	314.22894	-1415.60254	485.65686	200.47018	-1400.52026	396.08295	336.45020	-1416.03552	350.73676	330.55734	-1454.76807	412.46967	312.35486	-1463.50757	366.94556	315.67764	-1527.74670	99.21223	285.41891	0.00000	0.00000	0.00000	-1487.70728	26.89008	243.97398	-1649.98572	93.24625	296.43375	-1683.73682	134.72955	231.54959	-1662.51062	91.48970	190.72717	-1098.28076	995.76031	158.69356	-1249.62244	971.71136	22.58131	-1117.14685	734.22095	-9.57193	-1115.83154	691.48315	-9.26366	-1177.65210	725.81995	-17.57916	-1169.00073	682.05829	-13.94185	-1082.14661	467.56247	56.47125	-1097.01660	457.60211	168.62172	-983.86761	404.33911	51.03275	-972.61078	361.98151	51.62876	-1042.77405	381.13916	57.18784	-1022.24841	343.21490	55.41829	-898.59918	108.10612	110.75925	-922.61578	97.07529	198.19655	-827.99414	68.06988	147.91481	-1008.06415	30.73504	198.01663	0.00000	0.00000	0.00000	-1003.09106	31.09523	91.04523
